<svg width="43" height="49" viewBox="0 0 43 49" fill="none" xmlns="http://www.w3.org/2000/svg">
<path fill-rule="evenodd" clip-rule="evenodd" d="M21.898 47.143C24.6712 45.7806 41 37.1176 41 22.0205C41 11.1474 32.2696 2.33301 21.5 2.33301C10.7304 2.33301 2 11.1474 2 22.0205C2 37.1176 18.3288 45.7806 21.102 47.143C21.3599 47.2697 21.6401 47.2697 21.898 47.143ZM21.5 30.6289C26.1944 30.6289 30 26.8233 30 22.1289C30 17.4345 26.1944 13.6289 21.5 13.6289C16.8056 13.6289 13 17.4345 13 22.1289C13 26.8233 16.8056 30.6289 21.5 30.6289Z" fill="white"/>
<path d="M21.898 47.143L21.2366 45.7967L21.2366 45.7967L21.898 47.143ZM21.102 47.143L20.4406 48.4893L20.4406 48.4893L21.102 47.143ZM39.5 22.0205C39.5 28.9931 35.7321 34.567 31.4538 38.6467C27.1821 42.72 22.5591 45.147 21.2366 45.7967L22.5594 48.4893C24.0101 47.7766 28.9381 45.1908 33.5241 40.8178C38.1035 36.4511 42.5 30.1451 42.5 22.0205H39.5ZM21.5 3.83301C31.4276 3.83301 39.5 11.9623 39.5 22.0205H42.5C42.5 10.3325 33.1115 0.833008 21.5 0.833008V3.83301ZM3.5 22.0205C3.5 11.9623 11.5724 3.83301 21.5 3.83301V0.833008C9.88852 0.833008 0.5 10.3325 0.5 22.0205H3.5ZM21.7634 45.7967C20.4409 45.147 15.8179 42.72 11.5462 38.6467C7.26786 34.567 3.5 28.9931 3.5 22.0205H0.5C0.5 30.1451 4.89653 36.4511 9.47589 40.8178C14.0619 45.1908 18.9899 47.7766 20.4406 48.4893L21.7634 45.7967ZM21.2366 45.7967C21.3036 45.7638 21.3945 45.738 21.5 45.738C21.6055 45.738 21.6964 45.7638 21.7634 45.7967L20.4406 48.4893C21.1156 48.8209 21.8843 48.821 22.5594 48.4893L21.2366 45.7967ZM28.5 22.1289C28.5 25.9949 25.366 29.1289 21.5 29.1289V32.1289C27.0228 32.1289 31.5 27.6518 31.5 22.1289H28.5ZM21.5 15.1289C25.366 15.1289 28.5 18.2629 28.5 22.1289H31.5C31.5 16.6061 27.0228 12.1289 21.5 12.1289V15.1289ZM14.5 22.1289C14.5 18.2629 17.634 15.1289 21.5 15.1289V12.1289C15.9772 12.1289 11.5 16.6061 11.5 22.1289H14.5ZM21.5 29.1289C17.634 29.1289 14.5 25.9949 14.5 22.1289H11.5C11.5 27.6518 15.9772 32.1289 21.5 32.1289V29.1289Z" fill="#0078BE"/>
</svg>
