<svg width="24" height="24" viewBox="0 0 24 24" fill="none" xmlns="http://www.w3.org/2000/svg">
<path d="M8.5 5.77778H7.80017C6.82008 5.77778 6.32967 5.77778 5.95532 5.97154C5.62604 6.14199 5.35852 6.41375 5.19074 6.74826C5 7.12855 5 7.62675 5 8.6224V9.33333M8.5 5.77778H15.5M8.5 5.77778V4M15.5 5.77778H16.2002C17.1803 5.77778 17.6696 5.77778 18.044 5.97154C18.3733 6.14199 18.6417 6.41375 18.8094 6.74826C19 7.12818 19 7.62577 19 8.61948V9.33333M15.5 5.77778V4M5 9.33333V17.1557C5 18.1514 5 18.6489 5.19074 19.0292C5.35852 19.3637 5.62604 19.636 5.95532 19.8064C6.3293 20 6.81912 20 7.7973 20H16.2027C17.1809 20 17.67 20 18.044 19.8064C18.3733 19.636 18.6417 19.3637 18.8094 19.0292C19 18.6493 19 18.1524 19 17.1587V9.33333M5 9.33333H19M15.5 16.4444H15.5017L15.5017 16.4462L15.5 16.4462V16.4444ZM12 16.4444H12.0017L12.0017 16.4462L12 16.4462V16.4444ZM8.5 16.4444H8.50175L8.50171 16.4462L8.5 16.4462V16.4444ZM15.5017 12.8889V12.8907L15.5 12.8906V12.8889H15.5017ZM12 12.8889H12.0017L12.0017 12.8907L12 12.8906V12.8889ZM8.5 12.8889H8.50175L8.50171 12.8907L8.5 12.8906V12.8889Z" stroke="#1D1D1D" stroke-width="1.5" stroke-linecap="round" stroke-linejoin="round"/>
<script xmlns=""/></svg>