<svg width="38" height="60" viewBox="0 0 38 60" fill="none" xmlns="http://www.w3.org/2000/svg">
<path d="M28.0095 20.0712C28.2211 19.957 28.4316 19.8409 28.6406 19.7231C31.6125 18.0493 34.1584 16.1337 35.5221 15.0448C34.1584 13.956 31.6125 12.0403 28.6406 10.3665C25.4744 8.5833 21.9913 7.17137 19 7.17137C17.8737 7.17137 16.6776 7.37154 15.455 7.71635L13.5904 5.88134C15.3898 5.26168 17.2308 4.86449 19 4.86449C22.6252 4.86449 26.5519 6.5322 29.805 8.36438C33.0938 10.2167 35.8646 12.3363 37.2172 13.4286C38.2609 14.2714 38.2609 15.8183 37.2172 16.6611C35.8646 17.7533 33.0938 19.873 29.805 21.7253C29.7807 21.739 29.7564 21.7526 29.732 21.7663L28.0095 20.0712Z" fill="black"/>
<path fill-rule="evenodd" clip-rule="evenodd" d="M5.36965 0L34.1968 28.3688L32.5393 30L26.0222 23.5866L25.8814 23.6507C23.6274 24.5797 21.2554 25.2252 19 25.2252C15.3748 25.2252 11.4481 23.5574 8.19499 21.7253C4.9062 19.873 2.13544 17.7533 0.782784 16.6611C-0.26093 15.8183 -0.260926 14.2714 0.782785 13.4286C2.13544 12.3363 4.9062 10.2167 8.19499 8.36438C8.64666 8.10999 9.11132 7.85877 9.58635 7.61475L9.72106 7.54464L3.71209 1.63121L5.36965 0ZM24.0759 21.8739C22.3259 22.5178 20.5932 22.9183 19 22.9183C16.0087 22.9183 12.5256 21.5063 9.35937 19.7231C6.38755 18.0493 3.84164 16.1337 2.4779 15.0448C3.84164 13.956 6.38755 12.0403 9.35937 10.3665C10.0053 10.0028 10.6643 9.65445 11.3297 9.33041L11.4708 9.26656L24.2147 21.8078L24.0759 21.8739Z" fill="black"/>
<path fill-rule="evenodd" clip-rule="evenodd" d="M18.7573 40.0027C15.3766 40.0768 11.5862 41.6786 8.39612 43.4231C5.08552 45.2336 2.22802 47.3079 0.816442 48.3848C-0.272148 49.2152 -0.272146 50.7848 0.816442 51.6152C2.22802 52.6921 5.08552 54.7664 8.39612 56.5769C11.5862 58.3214 15.3766 59.9232 18.7573 59.9973C18.8384 59.9991 18.9193 60 19 60C19.0806 60 19.1616 59.9991 19.2427 59.9973C22.6234 59.9232 26.4138 58.3214 29.6039 56.5769C32.9145 54.7664 35.772 52.6921 37.1836 51.6152C38.2721 50.7848 38.2721 49.2152 37.1836 48.3848C35.772 47.3079 32.9145 45.2336 29.6039 43.4231C26.4138 41.6786 22.6234 40.0768 19.2427 40.0027C19.1616 40.0009 19.0806 40 19 40C18.9193 40 18.8384 40.0009 18.7573 40.0027ZM10.9832 50C10.9832 45.7286 14.5725 42.266 19 42.266C23.4275 42.266 27.0168 45.7286 27.0168 50C27.0168 54.2714 23.4275 57.734 19 57.734C14.5725 57.734 10.9832 54.2714 10.9832 50ZM2.48707 50C3.91325 51.0771 6.54797 52.9614 9.55446 54.6055C9.66939 54.6684 9.78463 54.7308 9.90013 54.7926C9.09313 53.3695 8.63435 51.7365 8.63435 50C8.63435 48.2635 9.09313 46.6305 9.90013 45.2074C9.78463 45.2692 9.66939 45.3316 9.55446 45.3945C6.54796 47.0386 3.91325 48.9229 2.48707 50ZM29.3656 50C29.3656 51.7365 28.9069 53.3695 28.0999 54.7926C28.1714 54.7543 28.2429 54.7158 28.3142 54.6771L28.4455 54.6055C31.452 52.9614 34.0868 51.0771 35.5129 50C34.0867 48.9229 31.452 47.0386 28.4455 45.3945C28.3306 45.3316 28.2154 45.2692 28.0999 45.2074C28.9069 46.6305 29.3656 48.2635 29.3656 50Z" fill="black"/>
</svg>
