<svg width="48" height="40" viewBox="0 0 48 40" fill="none" xmlns="http://www.w3.org/2000/svg">
<path d="M18.0186 30L17.8604 30.3359C17.7504 30.5614 17.6348 30.7803 17.5146 30.9932L20.002 35.2568L15.9365 33.1338C15.6839 33.3962 15.4187 33.639 15.1436 33.8643L16.1543 38.4023L12.8701 35.1953C12.3126 35.4106 11.7284 35.5656 11.1201 35.6572L9.7959 40L8.4707 35.6582C8.04107 35.5936 7.62353 35.497 7.21875 35.3701L4.0293 38.4854L4.96875 34.2617C4.75645 34.1133 4.55023 33.9542 4.34961 33.7852L0 36.0566L2.52539 31.7266C2.23618 31.2938 1.96943 30.83 1.72852 30.3359L1.57031 30H2.67773C4.21373 33.0755 6.75065 34.7565 9.79395 34.7568C12.8373 34.7568 15.373 33.0751 16.9092 30H18.0186Z" fill="#1D1D1D"/>
<path d="M46.0186 30L45.8604 30.3359C45.7504 30.5614 45.6348 30.7803 45.5146 30.9932L48.002 35.2568L43.9365 33.1338C43.6839 33.3962 43.4187 33.639 43.1436 33.8643L44.1543 38.4023L40.8701 35.1953C40.3126 35.4106 39.7284 35.5656 39.1201 35.6572L37.7959 40L36.4707 35.6582C36.0411 35.5936 35.6235 35.497 35.2188 35.3701L32.0293 38.4854L32.9688 34.2617C32.7565 34.1133 32.5502 33.9542 32.3496 33.7852L28 36.0566L30.5254 31.7266C30.2362 31.2938 29.9694 30.83 29.7285 30.3359L29.5703 30H30.6777C32.2137 33.0755 34.7506 34.7565 37.7939 34.7568C40.8373 34.7568 43.373 33.0751 44.9092 30H46.0186Z" fill="#1D1D1D"/>
<path fill-rule="evenodd" clip-rule="evenodd" d="M11.1201 4.33984C11.5775 4.4087 12.0211 4.51503 12.4502 4.6543L15.8154 1.36914L14.8115 5.87598C15.0559 6.05698 15.2924 6.25194 15.5205 6.46094L19.9805 4.13184L17.2598 8.57715C17.5364 9.02144 17.7904 9.49594 18.0186 10L17.8604 10.3359C17.7504 10.5614 17.6348 10.7803 17.5146 10.9932L20.002 15.2568L15.9365 13.1338C15.6839 13.3962 15.4187 13.639 15.1436 13.8643L16.1543 18.4023L12.8701 15.1953C12.3126 15.4106 11.7284 15.5656 11.1201 15.6572L9.7959 20L8.4707 15.6582C8.04107 15.5936 7.62353 15.497 7.21875 15.3701L4.0293 18.4854L4.96875 14.2617C4.75645 14.1133 4.55023 13.9542 4.34961 13.7852L0 16.0566L2.52539 11.7266C2.23618 11.2938 1.96943 10.83 1.72852 10.3359L1.57031 10C1.81937 9.4498 2.09869 8.93389 2.40527 8.45508L0 4.33203L4.07129 6.45801C4.26233 6.2831 4.45863 6.11724 4.66113 5.96191L3.67969 1.55078L6.92969 4.72461C7.424 4.54924 7.9387 4.41993 8.47168 4.33984L9.7959 0L11.1201 4.33984ZM9.79395 5.24316C6.7506 5.24346 4.21373 6.92439 2.67773 10C4.21373 13.0755 6.75065 14.7565 9.79395 14.7568C12.8373 14.7568 15.373 13.0751 16.9092 10C15.373 6.92453 12.8374 5.24316 9.79395 5.24316Z" fill="#1D1D1D"/>
<ellipse cx="10" cy="9.9999" rx="4" ry="3.9999" fill="#008BD2"/>
<circle cx="10" cy="10" r="3" fill="#1D1D1D"/>
<rect x="5.56836" y="9.59961" width="2.53632" height="0.79998" fill="#F6F6F6"/>
<path fill-rule="evenodd" clip-rule="evenodd" d="M39.1201 4.33984C39.5775 4.4087 40.0211 4.51503 40.4502 4.6543L43.8154 1.36914L42.8115 5.87598C43.0559 6.05698 43.2924 6.25194 43.5205 6.46094L47.9805 4.13184L45.2598 8.57715C45.5364 9.02144 45.7904 9.49594 46.0186 10L45.8604 10.3359C45.7504 10.5614 45.6348 10.7803 45.5146 10.9932L48.002 15.2568L43.9365 13.1338C43.6839 13.3962 43.4187 13.639 43.1436 13.8643L44.1543 18.4023L40.8701 15.1953C40.3126 15.4106 39.7284 15.5656 39.1201 15.6572L37.7959 20L36.4707 15.6582C36.0411 15.5936 35.6235 15.497 35.2188 15.3701L32.0293 18.4854L32.9688 14.2617C32.7565 14.1133 32.5502 13.9542 32.3496 13.7852L28 16.0566L30.5254 11.7266C30.2362 11.2938 29.9694 10.83 29.7285 10.3359L29.5703 10C29.8194 9.4498 30.0987 8.93389 30.4053 8.45508L28 4.33203L32.0713 6.45801C32.2623 6.2831 32.4586 6.11724 32.6611 5.96191L31.6797 1.55078L34.9297 4.72461C35.424 4.54924 35.9387 4.41993 36.4717 4.33984L37.7959 0L39.1201 4.33984ZM37.7939 5.24316C34.7506 5.24346 32.2137 6.92439 30.6777 10C32.2137 13.0755 34.7506 14.7565 37.7939 14.7568C40.8373 14.7568 43.373 13.0751 44.9092 10C43.373 6.92453 40.8374 5.24316 37.7939 5.24316Z" fill="#1D1D1D"/>
<ellipse cx="38" cy="9.9999" rx="4" ry="3.9999" fill="#008BD2"/>
<circle cx="38" cy="10" r="3" fill="#1D1D1D"/>
<rect x="33.5684" y="9.59961" width="2.53632" height="0.79998" fill="#F6F6F6"/>
</svg>
